<svg xmlns="http://www.w3.org/2000/svg" width="33.941" height="33.941" viewBox="0 0 33.941 33.941">
  <path id="Path_4" data-name="Path 4" d="M0,12A12,12,0,1,0,12,0,12,12,0,0,0,0,12Zm5.217-.522a1.044,1.044,0,0,1,1.044-1.043h3.913a.26.26,0,0,0,.26-.261V6.26a1.045,1.045,0,0,1,1.044-1.044h1.044A1.044,1.044,0,0,1,13.565,6.26v3.913a.26.26,0,0,0,.261.26h3.913a1.045,1.045,0,0,1,1.044,1.044v1.044a1.044,1.044,0,0,1-1.044,1.043H13.826a.26.26,0,0,0-.26.261v3.913a1.045,1.045,0,0,1-1.044,1.044H11.478a1.044,1.044,0,0,1-1.043-1.044V13.825a.26.26,0,0,0-.261-.26H6.26a1.045,1.045,0,0,1-1.044-1.044V11.477Z" transform="translate(16.971) rotate(45)" fill="#d8232a"/>
</svg>
