<svg xmlns="http://www.w3.org/2000/svg" width="24" height="24" viewBox="0 0 24 24">
                    <g fill="none" fill-rule="evenodd" stroke-linecap="round" stroke-linejoin="round">
                        <g stroke="#000" stroke-width="1.5">
                            <g>
                                <path d="M5 18.125h9.921c.732 0 1.357-.528 1.479-1.249l2.637-15.5c.123-.72.748-1.248 1.479-1.248h.984M6.875 20.375c.207 0 .375.168.375.375s-.168.375-.375.375-.375-.168-.375-.375.168-.375.375-.375M14.375 20.375c.207 0 .375.168.375.375s-.168.375-.375.375S14 20.957 14 20.75s.168-.375.375-.375" transform="translate(1 1)"></path>
                                <path d="M16.953 13.625H4.882c-1.376 0-2.576-.937-2.91-2.272l-1.45-5.8c-.056-.224-.006-.462.137-.644.142-.182.36-.288.591-.288h17.234" transform="translate(1 1)"></path>
                            </g>
                        </g>
                    </g>
                </svg>